<svg id="education" xmlns="http://www.w3.org/2000/svg" width="117.036" height="116.178" viewBox="0 0 117.036 116.178">
  <title>Artboard 14</title>
  <g>
    <g>
      <path d="M72.046,82.726H59.759v30.967H75.235V85.914A3.191,3.191,0,0,0,72.046,82.726Z" fill="none"/>
      <path d="M41.8,85.914v27.779H57.276V82.726H44.986A3.191,3.191,0,0,0,41.8,85.914Z" fill="none"/>
      <path d="M68.971,25.373a1.242,1.242,0,0,1,2.484,0V40.785h3.78V25.073a3.191,3.191,0,0,0-3.181-3.189H68.372a3.193,3.193,0,0,0-3.18,3.18V40.785h3.779Z" fill="none"/>
      <path d="M2.484,23.782V40.526H30.057V13.65H12.617A10.144,10.144,0,0,0,2.484,23.782Zm17.7-4.38a5.677,5.677,0,0,1,5.671,5.671V35.766a1.242,1.242,0,0,1-1.242,1.241H12.086a1.242,1.242,0,0,1-1.242-1.241V25.073a5.676,5.676,0,0,1,5.67-5.671Z" fill="none"/>
      <path d="M68.971,54.181a1.242,1.242,0,1,1,2.484,0V69.592h3.78V53.88a3.193,3.193,0,0,0-3.181-3.189H68.372a3.194,3.194,0,0,0-3.18,3.177V69.592h3.779Z" fill="none"/>
      <path d="M45.58,25.373a1.242,1.242,0,0,1,2.484,0V40.785h3.779V25.065a3.192,3.192,0,0,0-3.18-3.181H44.979a3.193,3.193,0,0,0-3.18,3.189V40.785H45.58Z" fill="none"/>
      <path d="M45.58,54.181a1.242,1.242,0,1,1,2.484,0V69.592h3.779V53.874a3.192,3.192,0,0,0-3.18-3.183H44.979A3.194,3.194,0,0,0,41.8,53.88V69.592H45.58Z" fill="none"/>
      <path d="M17.106,75.222a1.242,1.242,0,1,1,2.484,0V84.67h3.781V75.216a3.191,3.191,0,0,0-3.177-3.183H16.505a3.19,3.19,0,0,0-3.177,3.186V84.67h3.778Z" fill="none"/>
      <path d="M17.106,53.88a1.242,1.242,0,1,1,2.484,0v9.448h3.781V53.874a3.19,3.19,0,0,0-3.179-3.184H16.507a3.193,3.193,0,0,0-3.179,3.187v9.451h3.778Z" fill="none"/>
      <path d="M6.829,113.693H30.057V43.013H6.829Zm4.015-59.808v0a5.679,5.679,0,0,1,5.67-5.674l.013,0h3.645l.012,0a5.68,5.68,0,0,1,5.671,5.674V64.571a1.243,1.243,0,0,1-1.242,1.243H12.086a1.243,1.243,0,0,1-1.242-1.243Zm0,21.341v0a5.675,5.675,0,0,1,5.67-5.671h3.67a5.676,5.676,0,0,1,5.671,5.671V85.911a1.242,1.242,0,0,1-1.242,1.244H12.086a1.242,1.242,0,0,1-1.242-1.244Zm0,21.342v0a5.676,5.676,0,0,1,5.67-5.672h3.67a5.677,5.677,0,0,1,5.671,5.672v10.691a1.243,1.243,0,0,1-1.242,1.242H12.086a1.243,1.243,0,0,1-1.242-1.242Z" fill="none"/>
      <path d="M17.106,25.073a1.242,1.242,0,1,1,2.484,0v9.449h3.781V25.066a3.191,3.191,0,0,0-3.179-3.182H16.507a3.193,3.193,0,0,0-3.179,3.187v9.451h3.778Z" fill="none"/>
      <path d="M17.106,96.564a1.242,1.242,0,1,1,2.484,0v9.448h3.781V96.559a3.192,3.192,0,0,0-3.177-3.184H16.505a3.19,3.19,0,0,0-3.177,3.185v9.452h3.778Z" fill="none"/>
      <path d="M104.42,13.65H86.977V40.526h27.574V23.782A10.142,10.142,0,0,0,104.42,13.65ZM106,35.766a1.242,1.242,0,0,1-1.241,1.241H92.227a1.241,1.241,0,0,1-1.241-1.241V25.073A5.676,5.676,0,0,1,96.657,19.4h3.67A5.676,5.676,0,0,1,106,25.073V35.766Z" fill="none"/>
      <path d="M97.248,96.564a1.243,1.243,0,1,1,2.485,0v9.448h3.78V96.56a3.191,3.191,0,0,0-3.177-3.185H96.648a3.191,3.191,0,0,0-3.179,3.185v9.452h3.779V96.564Z" fill="none"/>
      <path d="M86.977,113.693H110.2V43.013H86.977Zm4.009-59.808v0a5.679,5.679,0,0,1,5.671-5.674l.012,0h3.644l.014,0A5.679,5.679,0,0,1,106,53.88V64.571a1.243,1.243,0,0,1-1.241,1.243H92.227a1.242,1.242,0,0,1-1.241-1.243V53.885Zm0,21.341v0a5.675,5.675,0,0,1,5.671-5.671h3.67A5.675,5.675,0,0,1,106,75.222V85.914a1.241,1.241,0,0,1-1.241,1.241H92.227a1.241,1.241,0,0,1-1.241-1.241V75.226Zm0,21.342v0a5.676,5.676,0,0,1,5.671-5.672h3.67A5.676,5.676,0,0,1,106,96.564v10.691a1.242,1.242,0,0,1-1.241,1.242H92.227a1.242,1.242,0,0,1-1.241-1.242V96.568Z" fill="none"/>
      <path d="M100.333,21.884H96.649a3.192,3.192,0,0,0-3.18,3.182v9.456h3.779V25.073a1.243,1.243,0,0,1,2.485,0v9.449h3.78V25.071A3.192,3.192,0,0,0,100.333,21.884Z" fill="none"/>
      <path d="M97.248,53.88a1.243,1.243,0,0,1,2.485,0v9.448h3.78V53.877a3.193,3.193,0,0,0-3.18-3.187H96.649a3.193,3.193,0,0,0-3.18,3.187v9.451h3.779V53.88Z" fill="none"/>
      <path d="M97.248,75.222a1.243,1.243,0,0,1,2.485,0V84.67h3.78V75.22a3.191,3.191,0,0,0-3.177-3.187H96.648a3.191,3.191,0,0,0-3.179,3.187v9.45h3.779V75.222Z" fill="none"/>
      <path d="M83.946,6.565H33.089l-6.5,4.6H90.445Z" fill="none"/>
      <polygon points="78.183 2.483 38.853 2.483 33.089 6.565 83.946 6.565 78.183 2.483" fill="#a2cbeb"/>
      <path d="M104.42,11.165H94.742L87.956,6.359,79.3.228A1.25,1.25,0,0,0,78.577,0H38.457a1.25,1.25,0,0,0-.718.228L28.832,6.535l-6.539,4.63H12.617A12.631,12.631,0,0,0,0,23.782V41.769a1.244,1.244,0,0,0,1.242,1.244h3.1v71.922a1.242,1.242,0,0,0,1.242,1.243H111.446a1.24,1.24,0,0,0,1.241-1.243V43.013h3.106a1.244,1.244,0,0,0,1.243-1.244V23.782A12.631,12.631,0,0,0,104.42,11.165ZM30.057,113.693H6.829V43.013H30.057Zm0-73.167H2.484V23.782A10.144,10.144,0,0,1,12.617,13.65h17.44Zm27.219,73.167H41.8V85.914a3.191,3.191,0,0,1,3.187-3.188h12.29Zm17.959,0H59.759V82.726H72.046a3.191,3.191,0,0,1,3.189,3.188Zm9.256,0H77.72V85.909a5.679,5.679,0,0,0-5.674-5.669H44.986a5.68,5.68,0,0,0-5.672,5.674v27.779H32.541V13.65h51.95ZM85.734,11.165H26.59l6.5-4.6,5.764-4.082h39.33l5.762,4.082,6.5,4.6H85.734ZM110.2,113.693H86.977V43.013H110.2Zm4.347-73.167H86.976V13.65H104.42a10.142,10.142,0,0,1,10.13,10.132V40.526Z" fill="#0065a5"/>
      <path d="M32.541,113.693h6.773V85.914a5.68,5.68,0,0,1,5.672-5.674h27.06a5.679,5.679,0,0,1,5.674,5.669v27.784h6.771V13.65H32.541ZM68.381,19.4h3.665a5.678,5.678,0,0,1,5.674,5.669V42.027a1.244,1.244,0,0,1-1.242,1.244H63.951a1.244,1.244,0,0,1-1.243-1.244V25.089l0-.016A5.679,5.679,0,0,1,68.381,19.4Zm0,28.806h3.665a5.679,5.679,0,0,1,5.674,5.669V70.834a1.242,1.242,0,0,1-1.242,1.242H63.951a1.243,1.243,0,0,1-1.243-1.242V53.9l0-.016A5.68,5.68,0,0,1,68.381,48.208ZM39.314,25.073A5.677,5.677,0,0,1,44.986,19.4h3.669a5.677,5.677,0,0,1,5.672,5.671V42.027a1.244,1.244,0,0,1-1.243,1.244H40.557a1.244,1.244,0,0,1-1.243-1.244Zm0,28.807a5.678,5.678,0,0,1,5.672-5.672h3.669a5.678,5.678,0,0,1,5.672,5.672V70.834a1.243,1.243,0,0,1-1.243,1.242H40.557a1.243,1.243,0,0,1-1.243-1.242Z" fill="#a2cbeb"/>
      <path d="M10.844,25.073V35.766a1.242,1.242,0,0,0,1.242,1.241H24.613a1.242,1.242,0,0,0,1.242-1.241V25.073A5.677,5.677,0,0,0,20.184,19.4h-3.67A5.676,5.676,0,0,0,10.844,25.073Zm2.484,0a3.193,3.193,0,0,1,3.179-3.187h3.685a3.191,3.191,0,0,1,3.179,3.182v9.456H19.59V25.073a1.242,1.242,0,1,0-2.484,0v9.449H13.328Z" fill="#0065a5"/>
      <path d="M100.327,19.4h-3.67a5.676,5.676,0,0,0-5.671,5.671V35.766a1.241,1.241,0,0,0,1.241,1.241h12.529A1.242,1.242,0,0,0,106,35.766V25.073A5.676,5.676,0,0,0,100.327,19.4Zm3.186,5.671v9.449h-3.78V25.073a1.243,1.243,0,0,0-2.485,0v9.449H93.469V25.066a3.192,3.192,0,0,1,3.18-3.182h3.684a3.192,3.192,0,0,1,3.18,3.187Z" fill="#0065a5"/>
      <path d="M12.086,65.814H24.613a1.243,1.243,0,0,0,1.242-1.243V53.88a5.68,5.68,0,0,0-5.671-5.674l-.012,0H16.527l-.013,0a5.679,5.679,0,0,0-5.67,5.674V64.571A1.243,1.243,0,0,0,12.086,65.814ZM13.328,53.88v0a3.193,3.193,0,0,1,3.179-3.187h3.685a3.19,3.19,0,0,1,3.179,3.184v9.454H19.59V53.88a1.242,1.242,0,1,0-2.484,0v9.448H13.328Z" fill="#0065a5"/>
      <path d="M92.227,65.814h12.529A1.243,1.243,0,0,0,106,64.571V53.88a5.679,5.679,0,0,0-5.67-5.674l-.014,0H96.669l-.012,0a5.679,5.679,0,0,0-5.671,5.674V64.571A1.243,1.243,0,0,0,92.227,65.814ZM93.469,53.88v0a3.193,3.193,0,0,1,3.18-3.187h3.684a3.193,3.193,0,0,1,3.18,3.187v9.451h-3.78V53.88a1.243,1.243,0,0,0-2.485,0v9.448H93.469Z" fill="#0065a5"/>
      <path d="M62.708,42.027a1.244,1.244,0,0,0,1.243,1.244H76.478a1.244,1.244,0,0,0,1.242-1.244V25.071A5.678,5.678,0,0,0,72.046,19.4H68.381a5.679,5.679,0,0,0-5.675,5.671l0,.016V42.027Zm2.484-16.963a3.193,3.193,0,0,1,3.18-3.18h3.682a3.192,3.192,0,0,1,3.181,3.189V40.785h-3.78V25.373a1.242,1.242,0,0,0-2.484,0V40.785H65.192Z" fill="#0065a5"/>
      <path d="M40.557,43.271H53.084a1.244,1.244,0,0,0,1.243-1.244V25.073A5.677,5.677,0,0,0,48.655,19.4H44.986a5.677,5.677,0,0,0-5.672,5.671V42.027A1.244,1.244,0,0,0,40.557,43.271Zm1.242-18.2a3.193,3.193,0,0,1,3.18-3.189h3.684a3.192,3.192,0,0,1,3.18,3.181v15.72H48.064V25.373a1.242,1.242,0,0,0-2.484,0V40.785H41.8Z" fill="#0065a5"/>
      <path d="M62.708,70.834a1.243,1.243,0,0,0,1.243,1.242H76.478a1.242,1.242,0,0,0,1.242-1.242V53.877a5.679,5.679,0,0,0-5.674-5.669H68.381a5.68,5.68,0,0,0-5.675,5.672l0,.016V70.834Zm2.484-16.966a3.194,3.194,0,0,1,3.18-3.177h3.682a3.194,3.194,0,0,1,3.181,3.189V69.592h-3.78V54.181a1.242,1.242,0,1,0-2.484,0V69.592H65.192Z" fill="#0065a5"/>
      <path d="M40.557,72.076H53.084a1.243,1.243,0,0,0,1.243-1.242V53.88a5.678,5.678,0,0,0-5.672-5.672H44.986a5.678,5.678,0,0,0-5.672,5.672V70.834A1.243,1.243,0,0,0,40.557,72.076ZM41.8,53.88a3.194,3.194,0,0,1,3.18-3.189h3.684a3.192,3.192,0,0,1,3.18,3.183V69.592H48.064V54.181a1.242,1.242,0,1,0-2.484,0V69.592H41.8Z" fill="#0065a5"/>
      <path d="M12.086,87.155H24.613a1.242,1.242,0,0,0,1.242-1.241V75.222a5.676,5.676,0,0,0-5.671-5.671h-3.67a5.675,5.675,0,0,0-5.67,5.671V85.914A1.242,1.242,0,0,0,12.086,87.155ZM13.328,75.22a3.19,3.19,0,0,1,3.177-3.187h3.689a3.191,3.191,0,0,1,3.177,3.183v9.455H19.59V75.222a1.242,1.242,0,1,0-2.484,0v9.449H13.328Z" fill="#0065a5"/>
      <path d="M92.227,87.155h12.529A1.241,1.241,0,0,0,106,85.914V75.222a5.675,5.675,0,0,0-5.67-5.671h-3.67a5.675,5.675,0,0,0-5.671,5.671V85.914A1.242,1.242,0,0,0,92.227,87.155ZM93.469,75.22a3.191,3.191,0,0,1,3.179-3.187h3.688a3.191,3.191,0,0,1,3.177,3.187v9.45h-3.78V75.222a1.243,1.243,0,0,0-2.485,0V84.67H93.469Z" fill="#0065a5"/>
      <path d="M12.086,108.5H24.613a1.243,1.243,0,0,0,1.242-1.242V96.564a5.677,5.677,0,0,0-5.671-5.672h-3.67a5.676,5.676,0,0,0-5.67,5.672v10.691A1.243,1.243,0,0,0,12.086,108.5ZM13.328,96.56a3.19,3.19,0,0,1,3.177-3.185h3.689a3.192,3.192,0,0,1,3.177,3.184v9.454H19.59V96.564a1.242,1.242,0,1,0-2.484,0v9.449H13.328Z" fill="#0065a5"/>
      <path d="M92.227,108.5h12.529A1.242,1.242,0,0,0,106,107.255V96.564a5.676,5.676,0,0,0-5.67-5.672h-3.67a5.676,5.676,0,0,0-5.671,5.672v10.691A1.243,1.243,0,0,0,92.227,108.5ZM93.469,96.56a3.191,3.191,0,0,1,3.179-3.185h3.688a3.191,3.191,0,0,1,3.177,3.185v9.452h-3.78V96.564a1.243,1.243,0,1,0-2.485,0v9.448H93.469Z" fill="#0065a5"/>
    </g>
    <rect x="6.829" y="43.013" width="23.228" height="2.306" fill="#a2cbeb"/>
    <rect x="86.976" y="43.013" width="23.227" height="2.306" fill="#a2cbeb"/>
  </g>
</svg>
