<svg id="education" xmlns="http://www.w3.org/2000/svg" width="61.662" height="119.359" viewBox="0 0 61.662 119.359">
  <title>Artboard 16</title>
  <g>
    <path d="M53.577,31.134a22.626,22.626,0,1,0-33.017,20.1v.691H19.7a1.242,1.242,0,1,0,0,2.484h.857V67.135A1.242,1.242,0,0,0,21.8,68.379h3.452V70.67A1.243,1.243,0,0,0,26.5,71.914h8.911A1.243,1.243,0,0,0,36.65,70.67V68.379H40.1a1.242,1.242,0,0,0,1.242-1.244V63.746H42.2a1.242,1.242,0,1,0,0-2.484h-.857V59.214H42.2a1.243,1.243,0,0,0,0-2.485h-.857V54.411H42.2a1.242,1.242,0,0,0,0-2.484h-.857v-.691A22.747,22.747,0,0,0,53.577,31.134ZM34.166,69.428h-6.43V68.379h6.43Zm4.693-12.7H28.932a1.243,1.243,0,1,0,0,2.485h9.927v2.048H28.932a1.242,1.242,0,1,0,0,2.484h9.927v2.147H23.043V54.411H38.859v2.318Zm.711-7.384a.527.527,0,0,0-.072.043.9.9,0,0,0-.115.069,1.054,1.054,0,0,0-.1.076c-.03.028-.06.053-.087.081a1.076,1.076,0,0,0-.079.1.778.778,0,0,0-.066.093.538.538,0,0,0-.058.1.625.625,0,0,0-.052.111c-.015.037-.025.077-.037.113s-.02.077-.029.116-.009.09-.014.137c0,.028-.007.054-.007.081v1.46H23.043v-1.46a.562.562,0,0,0-.006-.081,1.063,1.063,0,0,0-.015-.137c-.008-.039-.017-.078-.027-.116s-.023-.076-.038-.113a.939.939,0,0,0-.051-.111,1.124,1.124,0,0,0-.055-.1.85.85,0,0,0-.07-.094,1.085,1.085,0,0,0-.08-.1c-.027-.028-.057-.053-.087-.081a1.179,1.179,0,0,0-.093-.076,1.3,1.3,0,0,0-.115-.069.606.606,0,0,0-.073-.043,20.141,20.141,0,1,1,17.237,0Z" fill="#0065a5"/>
    <rect x="27.736" y="68.379" width="6.43" height="1.049" fill="#a2cbeb"/>
    <path d="M30.952,10.993a20.145,20.145,0,0,0-8.619,38.352.537.537,0,0,1,.073.043c.04.022.079.044.116.069s.062.05.092.076.06.053.087.081a1.085,1.085,0,0,1,.08.1.85.85,0,0,1,.07.094,1.124,1.124,0,0,1,.055.1,1.135,1.135,0,0,1,.052.111c.014.037.023.077.037.113s.019.077.027.116a.911.911,0,0,1,.015.137.562.562,0,0,1,.006.081v1.46H38.859v-1.46c0-.027.007-.053.007-.081.005-.047.007-.09.016-.137a.64.64,0,0,1,.03-.116.851.851,0,0,1,.034-.113A.518.518,0,0,1,39,49.909a.443.443,0,0,1,.056-.1.778.778,0,0,1,.066-.093,1.076,1.076,0,0,1,.079-.1c.027-.028.057-.053.087-.081a1.054,1.054,0,0,1,.1-.076,1.166,1.166,0,0,1,.115-.069.527.527,0,0,1,.072-.043,20.145,20.145,0,0,0-8.618-38.352Zm1.2,38.727a1.242,1.242,0,1,1-2.484,0V35.009a1.242,1.242,0,0,1,2.484,0Zm4.051,0a1.241,1.241,0,1,1-2.482,0V31.86H27.693V49.72a1.243,1.243,0,0,1-2.486,0v-19.1c0-.015,0-.028,0-.046a.972.972,0,0,1,.013-.129,1.019,1.019,0,0,1,.02-.119c.011-.038.021-.073.031-.106s.033-.086.053-.13c.007-.011.008-.027.016-.039L29.6,21.756a.045.045,0,0,0,.011-.013,1.457,1.457,0,0,1,.082-.128c.018-.025.035-.054.056-.078s.058-.058.087-.089.053-.057.083-.083.056-.035.08-.055a1.419,1.419,0,0,1,.127-.08l.015-.01a.768.768,0,0,1,.079-.032c.045-.017.088-.038.129-.05a.985.985,0,0,1,.122-.029.826.826,0,0,1,.116-.019,1.186,1.186,0,0,1,.119,0c.04,0,.083,0,.123,0a.966.966,0,0,1,.118.019,1.108,1.108,0,0,1,.117.029,1.2,1.2,0,0,1,.13.05c.027.013.055.016.082.032l.013.01a.77.77,0,0,1,.125.082.64.64,0,0,1,.079.053,1.177,1.177,0,0,1,.088.085c.029.03.06.056.089.087s.034.053.052.08a1.054,1.054,0,0,1,.083.126c0,.006,0,.008.007.013l4.258,8.293a.287.287,0,0,1,.018.047c.016.036.029.072.045.109s.03.085.04.127.01.065.015.1a.808.808,0,0,1,.016.151c0,.014,0,.026,0,.039v19.1Z" fill="#a2cbeb"/>
    <path d="M30.952,5.856a1.24,1.24,0,0,0,1.241-1.242V1.242a1.243,1.243,0,0,0-2.485,0V4.614A1.243,1.243,0,0,0,30.952,5.856Z" fill="#0065a5"/>
    <path d="M16.827,8.731a1.241,1.241,0,1,0,2.15-1.242l-1.684-2.92a1.242,1.242,0,0,0-2.152,1.242Z" fill="#0065a5"/>
    <path d="M4.809,17.052l2.919,1.687a1.229,1.229,0,0,0,.62.167,1.242,1.242,0,0,0,.622-2.318L6.052,14.9a1.241,1.241,0,1,0-1.243,2.149Z" fill="#0065a5"/>
    <path d="M1.48,31.956H4.853a1.242,1.242,0,1,0,0-2.483H1.48a1.242,1.242,0,1,0,0,2.483Z" fill="#0065a5"/>
    <path d="M9.426,43.144a1.244,1.244,0,0,0-1.7-.458L4.808,44.373a1.242,1.242,0,0,0,1.241,2.152l2.92-1.687A1.24,1.24,0,0,0,9.426,43.144Z" fill="#0065a5"/>
    <path d="M56.472,46.691a1.242,1.242,0,0,0,.623-2.318l-2.92-1.683a1.242,1.242,0,1,0-1.241,2.151l2.919,1.684A1.235,1.235,0,0,0,56.472,46.691Z" fill="#0065a5"/>
    <path d="M55.809,30.715a1.243,1.243,0,0,0,1.243,1.241h3.369a1.242,1.242,0,0,0,0-2.483H57.052A1.242,1.242,0,0,0,55.809,30.715Z" fill="#0065a5"/>
    <path d="M53.555,18.908a1.227,1.227,0,0,0,.62-.169l2.92-1.686a1.242,1.242,0,1,0-1.243-2.15l-2.918,1.685a1.244,1.244,0,0,0,.621,2.32Z" fill="#0065a5"/>
    <path d="M43.382,9.189a1.26,1.26,0,0,0,.62.165,1.238,1.238,0,0,0,1.075-.623l1.686-2.917A1.242,1.242,0,1,0,44.612,4.57L42.925,7.489A1.246,1.246,0,0,0,43.382,9.189Z" fill="#0065a5"/>
    <path d="M57.327,89.354H32.193V73.9a1.243,1.243,0,0,0-2.485,0V89.354H4.1a4.1,4.1,0,0,0-4.1,4.1v.5a4.1,4.1,0,0,0,2.987,3.938L9.708,118.5a1.24,1.24,0,0,0,1.181.855H50.536a1.243,1.243,0,0,0,1.181-.855l6.721-20.615a4.106,4.106,0,0,0,2.988-3.938v-.5A4.1,4.1,0,0,0,57.327,89.354Zm-7.69,27.522H11.79L5.65,98.047H55.774Zm9.3-22.925a1.612,1.612,0,0,1-1.611,1.611H4.1a1.614,1.614,0,0,1-1.616-1.611v-.5A1.617,1.617,0,0,1,4.1,91.839H57.327a1.615,1.615,0,0,1,1.614,1.614v.5Z" fill="#0065a5"/>
    <path d="M58.941,93.453v.5a1.612,1.612,0,0,1-1.611,1.611H4.1a1.614,1.614,0,0,1-1.616-1.611v-.5A1.617,1.617,0,0,1,4.1,91.839H57.327A1.615,1.615,0,0,1,58.941,93.453Z" fill="#a2cbeb"/>
    <polygon points="55.774 98.047 49.637 116.876 11.79 116.876 5.65 98.047 55.774 98.047" fill="#a2cbeb"/>
    <path d="M7.628,73.525c.037.307.978,7.6,6.607,11.188a12.549,12.549,0,0,0,6.885,1.905,21.276,21.276,0,0,0,6.552-1.152l.022-.012.058-.018.021-.011a1.156,1.156,0,0,0,.123-.059c.008,0,.013-.01.018-.012s.021-.015.033-.02l.045-.028c.029-.021.057-.044.085-.067s.026-.023.041-.034l.038-.034c.006-.005.009-.012.016-.017.031-.033.063-.066.092-.1,0,0,.006-.014.012-.019s.01-.015.016-.024.022-.032.034-.048.02-.027.028-.043a.226.226,0,0,0,.017-.035.436.436,0,0,0,.035-.072.647.647,0,0,0,.036-.08c.009-.025.019-.049.027-.075l.019-.068c.008-.03.012-.058.018-.088s.009-.054.011-.081a.428.428,0,0,0,.006-.072c0-.029,0-.056,0-.086s0-.055,0-.082a.714.714,0,0,0-.011-.079.34.34,0,0,0,0-.045c-1.046-5.558-3.441-9.4-7.121-11.417-5.853-3.212-12.7-.531-12.989-.414-.025.01-.047.026-.071.037a1.176,1.176,0,0,0-.117.06c-.034.023-.066.047-.1.071a1.087,1.087,0,0,0-.091.074.835.835,0,0,0-.086.092.723.723,0,0,0-.075.087c-.021.033-.043.065-.062.1a.945.945,0,0,0-.059.109,1.085,1.085,0,0,0-.04.1,1.219,1.219,0,0,0-.041.125,1.057,1.057,0,0,0-.019.106c-.006.044-.012.086-.016.13s0,.078,0,.116S7.624,73.492,7.628,73.525Zm12.577,1.3c2.359,1.3,4.08,3.61,5.146,6.874l-7.806-4.623a1.243,1.243,0,0,0-1.266,2.139l7.805,4.621c-3.374.638-6.229.237-8.5-1.2-3.534-2.243-4.863-6.485-5.3-8.41C12.181,73.676,16.54,72.8,20.2,74.821Z" fill="#0065a5"/>
    <path d="M53.731,72.963a.855.855,0,0,0-.045-.115c-.015-.033-.036-.066-.053-.1s-.045-.074-.07-.11a.8.8,0,0,0-.066-.076,1.024,1.024,0,0,0-.094-.1c-.026-.023-.052-.043-.079-.064a1.155,1.155,0,0,0-.113-.081c-.031-.016-.064-.032-.1-.05a.716.716,0,0,0-.087-.045c-.288-.117-7.136-2.8-12.988.414-3.679,2.018-6.074,5.859-7.12,11.419a.312.312,0,0,0-.005.044.547.547,0,0,0-.01.08.678.678,0,0,0,0,.08.422.422,0,0,0,0,.087c0,.025,0,.05,0,.073s.009.054.014.079.011.061.018.088.012.046.019.07.018.048.026.073a.841.841,0,0,0,.035.082c.011.025.023.046.036.07a.378.378,0,0,0,.017.035c.008.016.019.027.029.043a.452.452,0,0,0,.035.049.1.1,0,0,0,.015.023.038.038,0,0,0,.013.019,1.287,1.287,0,0,0,.091.1l.016.017a.413.413,0,0,0,.039.034.354.354,0,0,0,.04.034c.029.023.055.046.085.067l.046.028a.2.2,0,0,0,.03.02.048.048,0,0,1,.016.012,1.3,1.3,0,0,0,.126.059.113.113,0,0,0,.022.011l.054.018.027.012a21.254,21.254,0,0,0,6.55,1.152,12.572,12.572,0,0,0,6.886-1.9c5.626-3.588,6.571-10.879,6.607-11.189,0-.027,0-.052,0-.079a1.025,1.025,0,0,0,0-.135c0-.038-.009-.076-.013-.113s-.014-.084-.023-.123A.731.731,0,0,0,53.731,72.963Zm-7.889,9.664c-2.273,1.442-5.126,1.843-8.5,1.2l7.805-4.621a1.243,1.243,0,0,0-1.265-2.139l-7.808,4.623c1.067-3.264,2.789-5.575,5.146-6.874,3.667-2.018,8.026-1.145,9.922-.6C50.706,76.14,49.376,80.384,45.842,82.627Z" fill="#0065a5"/>
    <path d="M36.205,30.579a1.176,1.176,0,0,0-.016-.151c-.005-.031-.007-.063-.015-.1a1.248,1.248,0,0,0-.041-.127c-.015-.037-.028-.073-.044-.109a.287.287,0,0,0-.018-.047l-4.258-8.293-.01-.013a.709.709,0,0,0-.081-.126c-.018-.027-.033-.056-.051-.08s-.06-.057-.089-.087a1.177,1.177,0,0,0-.088-.085.584.584,0,0,0-.08-.053.72.72,0,0,0-.124-.082l-.013-.01c-.027-.016-.055-.019-.082-.034-.043-.015-.086-.036-.13-.048a1.108,1.108,0,0,0-.117-.029.966.966,0,0,0-.118-.019c-.04,0-.083,0-.123,0a1.183,1.183,0,0,0-.119,0,.855.855,0,0,0-.118.019,1.046,1.046,0,0,0-.12.029c-.041.012-.084.033-.13.048-.024.015-.054.018-.078.034l-.015.01a1.289,1.289,0,0,0-.127.08c-.025.02-.055.034-.08.055s-.057.056-.083.083a1.2,1.2,0,0,0-.087.089c-.021.024-.038.053-.056.078a1.257,1.257,0,0,0-.082.128c0,.006-.008.008-.011.013l-4.256,8.293c-.008.012-.009.028-.016.039-.02.044-.035.085-.053.13s-.02.068-.031.106a1.019,1.019,0,0,0-.02.119,1.181,1.181,0,0,0-.014.129c0,.018,0,.031,0,.046v19.1a1.242,1.242,0,1,0,2.484,0V31.86h6.034V49.72a1.241,1.241,0,1,0,2.482,0v-19.1C36.207,30.605,36.205,30.593,36.205,30.579Zm-7.721-1.2,2.223-4.333,2.228,4.333Z" fill="#0065a5"/>
    <polygon points="32.935 29.377 28.484 29.377 30.707 25.044 32.935 29.377" fill="#a2cbeb"/>
    <path d="M32.156,35.009V49.72a1.242,1.242,0,1,1-2.484,0V35.009a1.242,1.242,0,0,1,2.484,0Z" fill="#0065a5"/>
  </g>
</svg>
