<svg id="education" xmlns="http://www.w3.org/2000/svg" width="113.448" height="117.957" viewBox="0 0 113.448 117.957">
  <title>Artboard 15</title>
  <g>
    <path d="M9.6,69.01l.009,0H34.05l.009,0A5.459,5.459,0,1,0,28.6,63.552c0,.1,0,.2.008.294a1.242,1.242,0,1,1-2.481.14c-.008-.144-.012-.29-.012-.434A7.988,7.988,0,0,1,30.7,56.357a9.713,9.713,0,0,0-18.543,5.787,1.242,1.242,0,0,1-2.376.727,12.209,12.209,0,0,1,.334-8.081c-.17-.013-.341-.017-.512-.017a7.119,7.119,0,0,0,0,14.237Z" fill="none"/>
    <rect x="49.029" y="64.736" width="2.851" height="51.173" fill="#a2cbeb"/>
    <path d="M18.069,86.858h4.313a1.237,1.237,0,0,1,1.23,1.125h3.664l-4.894-9.472Z" fill="#a2cbeb"/>
    <path d="M91.066,86.858h4.311l-4.311-8.347-4.9,9.472h3.665A1.24,1.24,0,0,1,91.066,86.858Z" fill="#a2cbeb"/>
    <path d="M47.873,63.078H65.524a3.777,3.777,0,0,0,2.4-6.689,4.864,4.864,0,0,0,1.263-3.264V38.753c0-.029-.008-.06-.011-.09a4.045,4.045,0,0,0-6.3-3.177,4.036,4.036,0,0,0-5.564-1.128,4.067,4.067,0,0,0-3.4-1.937,3.919,3.919,0,0,0-1.562.328V23.928a4.048,4.048,0,1,0-8.1,0V43.849a.864.864,0,0,1-.873.852.831.831,0,0,1-.61-.259.052.052,0,0,1-.018-.015s-.007-.012-.015-.017L39.6,41.317a4.049,4.049,0,0,0-5.727,5.724L44.476,57.646a3.772,3.772,0,0,0,3.4,5.432Zm17.651-2.484H47.873a1.3,1.3,0,0,1-1.3-1.294,1.3,1.3,0,0,1,1.294-1.293H65.524a1.294,1.294,0,0,1,0,2.587Zm-29.9-15.31a1.564,1.564,0,1,1,2.221-2.2L41,46.182a.05.05,0,0,0,.013.011,3.347,3.347,0,0,0,5.726-2.344V23.928a1.564,1.564,0,1,1,3.128,0V38.914a1.242,1.242,0,0,0,2.484,0V36.556a1.7,1.7,0,0,1,.285-.928,1.55,1.55,0,0,1,1.278-.723,1.655,1.655,0,0,1,1.565,1.657v3.177a1.242,1.242,0,0,0,2.484,0V37.747a1.564,1.564,0,1,1,3.128,0v3.182a1.242,1.242,0,0,0,2.483,0V38.845a1.564,1.564,0,0,1,3.128,0v14.28a2.4,2.4,0,0,1-2.4,2.4H47.869a3.762,3.762,0,0,0-1.631.375Z" fill="#0065a5"/>
    <path d="M65.524,58.007H47.869A1.3,1.3,0,0,0,46.575,59.3a1.3,1.3,0,0,0,1.3,1.294H65.524a1.294,1.294,0,0,0,0-2.587Z" fill="#a2cbeb"/>
    <path d="M47.869,55.523H64.308a2.4,2.4,0,0,0,2.4-2.4V38.845a1.564,1.564,0,0,0-3.127,0v2.084a1.242,1.242,0,0,1-2.483,0V37.747a1.564,1.564,0,1,0-3.128,0v1.992a1.243,1.243,0,0,1-2.485,0V36.562a1.655,1.655,0,0,0-1.565-1.657,1.55,1.55,0,0,0-1.277.723,1.691,1.691,0,0,0-.285.928v2.358a1.243,1.243,0,0,1-2.485,0V23.928a1.564,1.564,0,1,0-3.128,0V43.849a3.346,3.346,0,0,1-5.725,2.344A.05.05,0,0,1,41,46.182l-3.157-3.1a1.564,1.564,0,1,0-2.221,2.2L46.238,55.9A3.762,3.762,0,0,1,47.869,55.523Z" fill="#a2cbeb"/>
    <path d="M49.029,64.52a1.243,1.243,0,1,0-2.485,0v52.2a1.243,1.243,0,0,0,2.485,0V64.52Z" fill="#0065a5"/>
    <path d="M65.607,63.277a1.242,1.242,0,0,0-1.243,1.243v52.2a1.243,1.243,0,0,0,2.486,0V64.52A1.242,1.242,0,0,0,65.607,63.277Z" fill="#0065a5"/>
    <path d="M44.752,87.685a1.244,1.244,0,0,0-1.674.533l-6.442,12.468L23.485,75.236l-.008-.012a1.157,1.157,0,0,0-.087-.132.439.439,0,0,0-.048-.071.864.864,0,0,0-.089-.092c-.028-.028-.054-.058-.084-.083s-.052-.034-.077-.054c-.042-.027-.083-.059-.128-.082,0,0-.008,0-.012-.008a.639.639,0,0,0-.083-.031,1.244,1.244,0,0,0-.131-.054c-.037-.01-.077-.016-.115-.024a.848.848,0,0,0-.121-.02.772.772,0,0,0-.118,0,.857.857,0,0,0-.124,0,1.082,1.082,0,0,0-.114.018c-.041.01-.082.014-.122.026s-.084.033-.125.052-.059.02-.087.033c-.005,0-.008.007-.013.008a1,1,0,0,0-.125.082.862.862,0,0,0-.08.054c-.03.025-.056.055-.084.083a.935.935,0,0,0-.088.09.741.741,0,0,0-.049.071c-.031.044-.062.088-.088.134l-.007.012L.139,116.145a1.241,1.241,0,0,0,.533,1.673,1.226,1.226,0,0,0,.569.139,1.239,1.239,0,0,0,1.1-.671L16.784,89.341h5.6a1.24,1.24,0,0,0,1.241-1.24,1.124,1.124,0,0,0-.011-.118,1.238,1.238,0,0,0-1.23-1.125H18.069l4.313-8.347,4.894,9.472,7.962,15.409-6.59,12.753a1.242,1.242,0,0,0,2.207,1.141l14.43-27.928A1.243,1.243,0,0,0,44.752,87.685Z" fill="#0065a5"/>
    <path d="M113.309,116.145,92.169,75.236l-.009-.012c-.024-.044-.053-.086-.081-.127s-.034-.054-.054-.078a.976.976,0,0,0-.084-.086,1.208,1.208,0,0,0-.089-.087c-.024-.021-.051-.036-.076-.054-.044-.027-.083-.059-.129-.082,0,0-.006-.007-.012-.008-.028-.013-.057-.022-.085-.033a1.271,1.271,0,0,0-.128-.052c-.04-.012-.081-.018-.121-.026a1.1,1.1,0,0,0-.115-.018.871.871,0,0,0-.125,0c-.038,0-.077,0-.116,0s-.084.015-.124.023-.075.014-.113.024-.094.036-.138.055c-.024.01-.051.017-.077.03l-.009.007a.875.875,0,0,0-.144.095.422.422,0,0,0-.062.042,1.337,1.337,0,0,0-.1.1,1.023,1.023,0,0,0-.071.075c-.02.025-.038.056-.06.086s-.054.076-.076.117l-.009.014L76.809,100.685,70.367,88.218a1.242,1.242,0,0,0-2.207,1.14l14.431,27.928a1.243,1.243,0,0,0,2.208-1.141l-6.593-12.753,7.963-15.409,4.9-9.472,4.311,8.347H91.066a1.24,1.24,0,0,0-1.232,1.125,1.122,1.122,0,0,0-.012.118,1.242,1.242,0,0,0,1.244,1.24h5.595l14.44,27.945a1.245,1.245,0,0,0,1.1.671,1.244,1.244,0,0,0,1.1-1.812Z" fill="#0065a5"/>
    <path d="M37.882,36.183h3.991a1.242,1.242,0,0,0,0-2.484H37.9l-.007,0a11.618,11.618,0,1,1,0-23.236,11.46,11.46,0,0,1,1.75.134,18.122,18.122,0,0,0-.836,12.795,1.241,1.241,0,0,0,2.374-.727A15.609,15.609,0,1,1,71.151,13.94a11.618,11.618,0,0,0-7.19,10.7c0,.209.006.42.018.626a1.242,1.242,0,0,0,2.481-.132c-.01-.164-.014-.33-.014-.494A9.063,9.063,0,1,1,75.509,33.7l-.011,0H71.164a1.242,1.242,0,0,0,0,2.484h4.361a11.548,11.548,0,1,0-1.988-22.926A18.085,18.085,0,0,0,40.9,8.3a14.1,14.1,0,1,0-3.017,27.883Z" fill="#0065a5"/>
    <path d="M73.856,46.026a10.565,10.565,0,0,0-1.981-.192c-.1,0-.193,0-.291.008a1.242,1.242,0,0,0,.174,2.477c.022,0,.046,0,.068,0,.261,0,.524.016.784.041a13.345,13.345,0,0,0-.421,8.951,1.245,1.245,0,0,0,1.189.879,1.267,1.267,0,0,0,.362-.055,1.243,1.243,0,0,0,.826-1.55,10.8,10.8,0,0,1,20.658-6.337,8.664,8.664,0,0,0-5.066,7.848c0,.157,0,.313.011.47a1.243,1.243,0,0,0,2.482-.135c-.006-.113-.008-.224-.008-.335a6.125,6.125,0,1,1,6.123,6.124l-.016,0H71.892l-.017,0a7.906,7.906,0,0,1-2.257-.324,1.242,1.242,0,0,0-.7,2.382,10.38,10.38,0,0,0,2.934.426h26.94a8.61,8.61,0,0,0-.021-17.219,8.515,8.515,0,0,0-1.153.082,13.287,13.287,0,0,0-23.757-3.539Z" fill="#0065a5"/>
    <path d="M9.59,71.493H34.073a7.942,7.942,0,1,0-.983-15.82,12.2,12.2,0,0,0-21.735-3.22A9.836,9.836,0,0,0,9.6,52.29a9.6,9.6,0,0,0-.013,19.2ZM9.6,54.773c.172,0,.342,0,.512.017a12.226,12.226,0,0,0-.334,8.081,1.242,1.242,0,0,0,2.376-.727A9.713,9.713,0,0,1,30.7,56.357a7.988,7.988,0,0,0-4.584,7.2c0,.144,0,.291.012.434a1.242,1.242,0,1,0,2.48-.14c-.005-.1-.008-.195-.008-.294a5.458,5.458,0,1,1,5.458,5.46H9.6a7.12,7.12,0,0,1,0-14.239Z" fill="#0065a5"/>
  </g>
</svg>
