<?xml version="1.0" ?><!DOCTYPE svg  PUBLIC '-//W3C//DTD SVG 1.1//EN'  'http://www.w3.org/Graphics/SVG/1.1/DTD/svg11.dtd'><svg style="enable-background:new 0 0 499.996 500.007;" version="1.1" viewBox="0 0 499.996 500.007" xml:space="preserve" xmlns="http://www.w3.org/2000/svg" xmlns:xlink="http://www.w3.org/1999/xlink"><g id="mobile-bank-point"><g><path d="M249.998,500.007C111.931,500.007,0,388.076,0,250C0,111.931,111.931,0,249.998,0    c138.063,0,249.998,111.931,249.998,250C499.996,388.076,388.061,500.007,249.998,500.007z" style="fill:#5FD4AF;"/><g id="_x33_"><g><g><path d="M285.502,118.721H157.785c-14.453,0.03-26.132,11.705-26.184,26.166V355.1       c0.051,14.461,11.731,26.141,26.184,26.184h127.717c14.461-0.043,26.145-11.722,26.171-26.184v-0.38v-1.539V144.888       C311.647,130.426,299.963,118.751,285.502,118.721z" style="fill:#59616A;"/><path d="M209.349,125.858h24.589c1.53,0,2.778,1.244,2.778,2.77c0,1.538-1.248,2.782-2.778,2.782       h-24.589c-1.539,0-2.778-1.244-2.778-2.782C206.571,127.101,207.81,125.858,209.349,125.858z" style="fill:#59616A;"/><path d="M221.639,372.552c-6.564,0-11.889-5.321-11.889-11.898c0-6.564,5.325-11.897,11.889-11.897       c6.581,0,11.906,5.333,11.906,11.897C233.545,367.232,228.22,372.552,221.639,372.552z" style="fill:#59616A;"/><linearGradient gradientUnits="userSpaceOnUse" id="SVGID_1_" x1="129.1905" x2="314.0803" y1="175.7393" y2="305.2005"><stop offset="0.5" style="stop-color:#FFFFFF"/><stop offset="0.5153" style="stop-color:#EBEBEB"/></linearGradient><path d="M292.583,334.091c-0.218,3.675-3.355,6.722-7.081,6.722H157.785       c-3.855,0-7.128-3.265-7.137-7.132V147.264c0.009-3.854,3.282-7.119,7.137-7.136h127.717c3.859,0.017,7.128,3.282,7.141,7.136       v186.883L292.583,334.091z" style="fill:url(#SVGID_1_);"/></g></g><g><path d="M351.741,166.924H308.25h-16.039h-38.436c-9.154,0-16.658,7.505-16.658,16.662v59.581      c0,9.158,7.504,16.66,16.658,16.66h6.359v33.472l28.119-33.472h3.957h16.039h43.491c9.162,0,16.658-7.502,16.658-16.66v-59.581      C368.399,174.428,360.903,166.924,351.741,166.924z" style="fill:#FF9554;"/><path d="M357.8,243.167c0,3.286-2.777,6.059-6.059,6.059H308.25h-16.039h-38.436      c-3.282,0-6.047-2.774-6.047-6.059v-59.581c0-3.282,2.765-6.059,6.047-6.059h38.436h16.039h43.491      c3.282,0,6.059,2.777,6.059,6.059V243.167z" style="fill:#FFFFFF;"/><path d="M332.228,232.479h-3.444v-19.632h3.444v-3.936h-54.987v3.936h3.457v19.632h-3.457v3.718h-3.038      v4.355h61.059v-4.355h-3.034V232.479z M294.357,232.479h-6.543v-19.632h6.543V232.479z M308.006,232.479h-6.538v-19.632h6.538      V232.479z M321.664,232.479h-6.538v-19.632h6.538V232.479z M274.203,204.197v1.837h61.059v-1.837l-30.521-20.513      L274.203,204.197z M315.416,199.642h-21.367V199l10.692-7.182L315.416,199V199.642z" style="fill:#4F5A69;"/></g></g></g></g><g id="Layer_1"/></svg>