<?xml version="1.0" ?><!DOCTYPE svg  PUBLIC '-//W3C//DTD SVG 1.1//EN'  'http://www.w3.org/Graphics/SVG/1.1/DTD/svg11.dtd'><svg style="enable-background:new 0 0 499.996 500.007;" version="1.1" viewBox="0 0 499.996 500.007" xml:space="preserve" xmlns="http://www.w3.org/2000/svg" xmlns:xlink="http://www.w3.org/1999/xlink"><g id="money-safe-box"><g><path d="M249.998,500.007C111.931,500.007,0,388.076,0,250C0,111.931,111.931,0,249.998,0    s249.998,111.931,249.998,250C499.996,388.076,388.065,500.007,249.998,500.007z" style="fill:#FF9554;"/><g id="_x32_"><path d="M340.112,129.661H159.884c-17.09,0-31.072,13.981-31.072,31.075V325.42     c0,17.087,13.983,31.074,31.072,31.074h4.611c0.534,7.725,6.901,13.842,14.765,13.842c7.859,0,14.226-6.117,14.752-13.842     h111.973c0.526,7.725,6.893,13.848,14.76,13.848c7.855,0,14.218-6.124,14.752-13.848h4.615c17.098,0,31.072-13.987,31.072-31.074     V160.736C371.185,143.642,357.211,129.661,340.112,129.661z M340.095,227.079v51.26c0,4.186-3.389,7.579-7.585,7.579     c-4.18,0-7.577-3.393-7.577-7.579v-51.26c-4.145-2.549-6.91-7.118-6.91-12.344c0-8.004,6.487-14.5,14.496-14.5     c8.004,0,14.504,6.496,14.504,14.5C347.023,219.962,344.245,224.53,340.095,227.079z" style="fill:#59616A;"/><path d="M227.733,315.587c-40.046,0-72.503-32.466-72.503-72.512c0-40.042,32.457-72.502,72.503-72.502     c40.042,0,72.499,32.459,72.499,72.502C300.232,283.121,267.775,315.587,227.733,315.587z" style="fill:#A8B6C0;"/><g><path d="M228.421,198.458c1.718,0,3.107-1.391,3.107-3.1v-15.891c0-1.716-1.389-3.107-3.107-3.107      c-1.718,0-3.107,1.391-3.107,3.107v15.891C225.314,197.067,226.703,198.458,228.421,198.458z" style="fill:#F7F7F7;"/><path d="M194.003,189.635c-1.008-1.389-2.953-1.693-4.346-0.682c-1.389,1.004-1.697,2.949-0.684,4.335      l9.338,12.855c0.607,0.84,1.556,1.284,2.521,1.284c0.632,0,1.265-0.19,1.82-0.59c1.393-1.01,1.697-2.955,0.684-4.342      L194.003,189.635z" style="fill:#F7F7F7;"/><path d="M184.729,224.84l-15.107-4.917c-1.632-0.521-3.389,0.374-3.919,1.996      c-0.534,1.637,0.359,3.393,1.992,3.921l15.115,4.908c0.321,0.105,0.645,0.151,0.966,0.151c1.312,0,2.53-0.833,2.949-2.145      C187.251,227.124,186.366,225.366,184.729,224.84z" style="fill:#F7F7F7;"/><path d="M182.81,253.853l-15.115,4.912c-1.624,0.53-2.525,2.289-1.992,3.915      c0.428,1.308,1.641,2.15,2.953,2.15c0.325,0,0.645-0.049,0.966-0.152l15.107-4.908c1.637-0.53,2.521-2.288,1.995-3.917      C186.199,254.218,184.443,253.321,182.81,253.853z" style="fill:#F7F7F7;"/><path d="M198.31,278.455l-9.338,12.857c-1.013,1.387-0.697,3.329,0.684,4.342      c0.56,0.397,1.192,0.588,1.825,0.588c0.961,0,1.915-0.44,2.521-1.28l9.333-12.848c1.013-1.389,0.71-3.342-0.684-4.344      C201.263,276.758,199.319,277.068,198.31,278.455z" style="fill:#F7F7F7;"/><path d="M228.421,286.143c-1.714,0-3.107,1.391-3.107,3.107v15.891c0,1.716,1.393,3.1,3.107,3.1      c1.718,0,3.111-1.385,3.111-3.1l-0.004-15.891C231.528,287.534,230.139,286.143,228.421,286.143z" style="fill:#F7F7F7;"/><path d="M258.528,278.455c-1.008-1.387-2.949-1.697-4.338-0.686c-1.385,1.011-1.701,2.949-0.684,4.344      l9.338,12.855c0.607,0.833,1.555,1.273,2.517,1.273c0.632,0,1.273-0.19,1.82-0.588c1.393-1.015,1.701-2.955,0.692-4.342      L258.528,278.455z" style="fill:#F7F7F7;"/><path d="M289.134,258.765l-15.103-4.912c-1.632-0.532-3.393,0.365-3.919,1.993      c-0.517,1.628,0.363,3.385,1.992,3.917l15.12,4.914c0.316,0.102,0.641,0.143,0.957,0.143c1.308,0,2.526-0.833,2.949-2.141      C291.66,261.045,290.775,259.289,289.134,258.765z" style="fill:#F7F7F7;"/><path d="M273.07,230.9c0.32,0,0.645-0.047,0.961-0.151l15.103-4.908c1.641-0.534,2.525-2.284,1.995-3.93      c-0.529-1.628-2.273-2.515-3.906-1.987l-15.12,4.908c-1.628,0.53-2.509,2.289-1.992,3.917      C270.541,230.06,271.758,230.9,273.07,230.9z" style="fill:#F7F7F7;"/><path d="M256.011,207.421c0.961,0,1.906-0.438,2.517-1.278l9.338-12.855      c1.017-1.387,0.701-3.331-0.692-4.335c-1.389-1.011-3.321-0.701-4.329,0.686l-9.338,12.857      c-1.009,1.387-0.701,3.325,0.684,4.342C254.737,207.231,255.378,207.421,256.011,207.421z" style="fill:#F7F7F7;"/></g><polygon points="235.297,206.881 259.13,199.627 257.857,224.502    " style="fill:#59616A;"/><linearGradient gradientUnits="userSpaceOnUse" id="SVGID_1_" x1="189.4046" x2="266.0534" y1="243.0769" y2="243.0769"><stop offset="0.5" style="stop-color:#FFFFFF"/><stop offset="0.5" style="stop-color:#EBEBEB"/></linearGradient><path d="M227.733,204.757c-21.166,0-38.328,17.154-38.328,38.318     c0,21.169,17.162,38.322,38.328,38.322c21.162,0,38.32-17.154,38.32-38.322C266.053,221.91,248.895,204.757,227.733,204.757z" style="fill:url(#SVGID_1_);"/><path d="M340.095,227.079v51.26c0,4.186-3.389,7.579-7.585,7.579c-4.18,0-7.577-3.393-7.577-7.579v-51.26     c-4.145-2.549-6.91-7.118-6.91-12.344c0-8.004,6.487-14.5,14.496-14.5c8.004,0,14.504,6.496,14.504,14.5     C347.023,219.962,344.245,224.53,340.095,227.079z" style="fill:#FFFFFF;"/></g></g></g><g id="Layer_1"/></svg>