<?xml version="1.0" ?><!DOCTYPE svg  PUBLIC '-//W3C//DTD SVG 1.1//EN'  'http://www.w3.org/Graphics/SVG/1.1/DTD/svg11.dtd'><svg style="enable-background:new 0 0 499.987 500.007;" version="1.1" viewBox="0 0 499.987 500.007" xml:space="preserve" xmlns="http://www.w3.org/2000/svg" xmlns:xlink="http://www.w3.org/1999/xlink"><g id="receipt-paid-paper"><g><path d="M249.989,500.007C111.922,500.007,0,388.076,0,250C0,111.931,111.922,0,249.989,0    c138.076,0,249.998,111.931,249.998,250C499.987,388.076,388.065,500.007,249.989,500.007z" style="fill:#A8B6C0;"/><g id="_x35_"><linearGradient gradientUnits="userSpaceOnUse" id="SVGID_1_" x1="249.9895" x2="249.9895" y1="118.7235" y2="381.2853"><stop offset="0.5" style="stop-color:#E0E0E0"/><stop offset="0.5" style="stop-color:#FFFFFF"/></linearGradient><polygon points="151.529,118.724 151.529,381.285 184.349,359.401 217.169,381.285      249.989,359.401 282.81,381.285 315.63,353.926 348.45,381.285 348.45,118.724    " style="fill:url(#SVGID_1_);"/><g><g><polyline points="330.775,185.462 330.775,193.385 171.657,193.385 171.657,185.462      " style="fill:#59616A;"/><rect height="7.932" style="fill:#59616A;" width="159.118" x="171.657" y="207.274"/><rect height="7.932" style="fill:#59616A;" width="159.118" x="171.657" y="229.098"/><rect height="7.919" style="fill:#59616A;" width="159.118" x="171.657" y="263.414"/><rect height="7.918" style="fill:#59616A;" width="159.118" x="171.657" y="285.231"/><rect height="7.931" style="fill:#59616A;" width="159.118" x="171.657" y="307.046"/><rect height="7.932" style="fill:#59616A;" width="159.118" x="171.657" y="328.871"/></g><g><path d="M325.143,155.168c-1.419,0-2.632,0.526-3.633,1.602c-0.983,1.06-1.658,2.265-2.017,3.602       c-0.368,1.325-0.53,2.432-0.53,3.351c0,2.102,0.445,3.671,1.368,4.709c0.898,1.017,2.009,1.543,3.333,1.543       c1.974,0,3.53-0.915,4.649-2.761c1.111-1.825,1.675-3.786,1.675-5.889c0-1.675-0.402-3.111-1.196-4.316       C327.972,155.796,326.775,155.168,325.143,155.168z M326.621,165.484c-0.59,1.705-1.53,2.577-2.76,2.577       c-0.778,0-1.402-0.278-1.829-0.872c-0.453-0.581-0.684-1.41-0.684-2.513c0-1.534,0.308-3.179,0.915-4.927       c0.598-1.761,1.547-2.654,2.863-2.654c0.752,0,1.35,0.308,1.786,0.91c0.428,0.603,0.624,1.432,0.624,2.53       C327.536,162.107,327.245,163.766,326.621,165.484z M315.955,167.214c1.111-1.825,1.667-3.786,1.667-5.889       c0-1.675-0.385-3.111-1.197-4.316c-0.812-1.213-2.008-1.842-3.641-1.842c-1.41,0-2.633,0.526-3.624,1.602       c-0.983,1.06-1.675,2.265-2.017,3.602c-0.367,1.325-0.53,2.432-0.53,3.351c0,2.102,0.445,3.671,1.368,4.709       c0.889,1.017,2.009,1.543,3.325,1.543C313.288,169.975,314.835,169.061,315.955,167.214z M311.502,168.061       c-0.778,0-1.393-0.278-1.829-0.872c-0.453-0.581-0.684-1.41-0.684-2.513c0-1.534,0.316-3.179,0.915-4.927       c0.598-1.761,1.556-2.654,2.863-2.654c0.752,0,1.35,0.308,1.778,0.91c0.445,0.603,0.641,1.432,0.641,2.53       c0,1.572-0.299,3.23-0.906,4.948C313.664,167.189,312.741,168.061,311.502,168.061z M298.929,169.975       c1.983,0,3.53-0.915,4.658-2.761c1.12-1.825,1.684-3.786,1.684-5.889c0-1.675-0.393-3.111-1.213-4.316       c-0.803-1.213-2.017-1.842-3.65-1.842c-1.41,0-2.624,0.526-3.607,1.602c-1,1.06-1.693,2.265-2.034,3.602       c-0.368,1.325-0.538,2.432-0.538,3.351c0,2.102,0.453,3.671,1.368,4.709C296.519,169.45,297.613,169.975,298.929,169.975z        M297.528,159.749c0.598-1.761,1.547-2.654,2.872-2.654c0.761,0,1.342,0.308,1.778,0.91c0.436,0.603,0.649,1.432,0.649,2.53       c0,1.572-0.316,3.23-0.915,4.948c-0.624,1.705-1.538,2.577-2.769,2.577c-0.778,0-1.393-0.278-1.846-0.872       c-0.453-0.581-0.666-1.41-0.666-2.513C296.63,163.142,296.938,161.497,297.528,159.749z M286.57,169.975       c1.983,0,3.53-0.915,4.65-2.761c1.111-1.825,1.683-3.786,1.683-5.889c0-1.675-0.402-3.111-1.205-4.316       c-0.812-1.213-2.008-1.842-3.649-1.842c-1.41,0-2.633,0.526-3.624,1.602c-0.983,1.06-1.666,2.265-2.017,3.602       c-0.368,1.325-0.538,2.432-0.538,3.351c0,2.102,0.453,3.671,1.367,4.709C284.134,169.45,285.254,169.975,286.57,169.975z        M285.169,159.749c0.607-1.761,1.555-2.654,2.863-2.654c0.761,0,1.359,0.308,1.795,0.91c0.419,0.603,0.624,1.432,0.624,2.53       c0,1.572-0.299,3.23-0.915,4.948c-0.598,1.705-1.539,2.577-2.761,2.577c-0.786,0-1.402-0.278-1.837-0.872       c-0.444-0.581-0.684-1.41-0.684-2.513C284.254,163.142,284.579,161.497,285.169,159.749z M273.596,167.214       c1.12-1.825,1.667-3.786,1.667-5.889c0-1.675-0.402-3.111-1.197-4.316c-0.795-1.213-2.017-1.842-3.649-1.842       c-1.419,0-2.616,0.526-3.615,1.602c-1,1.06-1.658,2.265-2.034,3.602c-0.342,1.325-0.53,2.432-0.53,3.351       c0,2.102,0.444,3.671,1.367,4.709c0.914,1.017,2.034,1.543,3.324,1.543C270.912,169.975,272.485,169.061,273.596,167.214z        M269.152,168.061c-0.786,0-1.402-0.278-1.846-0.872c-0.453-0.581-0.675-1.41-0.675-2.513c0-1.534,0.299-3.179,0.906-4.927       c0.598-1.761,1.547-2.654,2.863-2.654c0.769,0,1.367,0.308,1.778,0.91c0.445,0.603,0.649,1.432,0.649,2.53       c0,1.572-0.291,3.23-0.906,4.948C271.297,167.189,270.383,168.061,269.152,168.061z M258.058,155.168       c-1.427,0-2.607,0.526-3.607,1.602c-1.008,1.06-1.675,2.265-2.043,3.602c-0.35,1.325-0.53,2.432-0.53,3.351       c0,2.102,0.445,3.671,1.368,4.709c0.915,1.017,2.034,1.543,3.325,1.543c1.991,0,3.555-0.915,4.667-2.761       c1.12-1.825,1.667-3.786,1.667-5.889c0-1.675-0.393-3.111-1.205-4.316C260.904,155.796,259.681,155.168,258.058,155.168z        M259.553,165.484c-0.606,1.705-1.521,2.577-2.76,2.577c-0.778,0-1.393-0.278-1.855-0.872c-0.445-0.581-0.658-1.41-0.658-2.513       c0-1.534,0.299-3.179,0.897-4.927c0.599-1.761,1.539-2.654,2.863-2.654c0.761,0,1.367,0.308,1.778,0.91       c0.436,0.603,0.658,1.432,0.658,2.53C260.477,162.107,260.169,163.766,259.553,165.484z M245.699,155.168       c-1.41,0-2.607,0.526-3.615,1.602c-1,1.06-1.659,2.265-2.026,3.602c-0.359,1.325-0.539,2.432-0.539,3.351       c0,2.102,0.453,3.671,1.368,4.709c0.915,1.017,2.034,1.543,3.342,1.543c1.974,0,3.538-0.915,4.658-2.761       c1.111-1.825,1.667-3.786,1.667-5.889c0-1.675-0.41-3.111-1.205-4.316C248.554,155.796,247.34,155.168,245.699,155.168z        M247.203,165.484c-0.633,1.705-1.539,2.577-2.778,2.577c-0.778,0-1.393-0.278-1.846-0.872       c-0.444-0.581-0.666-1.41-0.666-2.513c0-1.534,0.308-3.179,0.906-4.927c0.59-1.761,1.547-2.654,2.863-2.654       c0.769,0,1.368,0.308,1.786,0.91c0.428,0.603,0.65,1.432,0.65,2.53C248.118,162.107,247.819,163.766,247.203,165.484z        M231.861,169.975c1.974,0,3.521-0.915,4.65-2.761c1.12-1.825,1.675-3.786,1.675-5.889c0-1.675-0.402-3.111-1.196-4.316       c-0.795-1.213-2.017-1.842-3.65-1.842c-1.419,0-2.633,0.526-3.607,1.602c-1,1.06-1.684,2.265-2.043,3.602       c-0.359,1.325-0.521,2.432-0.521,3.351c0,2.102,0.444,3.671,1.359,4.709C229.443,169.45,230.545,169.975,231.861,169.975z        M230.46,159.749c0.598-1.761,1.556-2.654,2.854-2.654c0.778,0,1.368,0.308,1.795,0.91c0.428,0.603,0.641,1.432,0.641,2.53       c0,1.572-0.308,3.23-0.906,4.948c-0.616,1.705-1.53,2.577-2.77,2.577c-0.778,0-1.402-0.278-1.855-0.872       c-0.444-0.581-0.658-1.41-0.658-2.513C229.562,163.142,229.861,161.497,230.46,159.749z M214.246,169.975       c1.974,0,3.521-0.915,4.65-2.761c1.111-1.825,1.675-3.786,1.675-5.889c0-1.675-0.402-3.111-1.213-4.316       c-0.803-1.213-2.017-1.842-3.632-1.842c-1.436,0-2.632,0.526-3.633,1.602c-1.008,1.06-1.666,2.265-2.034,3.602       c-0.35,1.325-0.539,2.432-0.539,3.351c0,2.102,0.47,3.671,1.367,4.709C211.81,169.45,212.921,169.975,214.246,169.975z        M212.819,159.749c0.606-1.761,1.564-2.654,2.871-2.654c0.761,0,1.359,0.308,1.795,0.91c0.419,0.603,0.632,1.432,0.632,2.53       c0,1.572-0.299,3.23-0.915,4.948c-0.598,1.705-1.53,2.577-2.761,2.577c-0.786,0-1.41-0.278-1.846-0.872       c-0.445-0.581-0.675-1.41-0.675-2.513C211.922,163.142,212.22,161.497,212.819,159.749z M201.87,169.975       c1.974,0,3.538-0.915,4.658-2.761c1.119-1.825,1.658-3.786,1.658-5.889c0-1.675-0.393-3.111-1.197-4.316       c-0.795-1.213-2.009-1.842-3.641-1.842c-1.41,0-2.616,0.526-3.607,1.602c-1,1.06-1.675,2.265-2.043,3.602       c-0.351,1.325-0.539,2.432-0.539,3.351c0,2.102,0.462,3.671,1.376,4.709C199.452,169.45,200.571,169.975,201.87,169.975z        M200.469,159.749c0.59-1.761,1.539-2.654,2.863-2.654c0.76,0,1.367,0.308,1.777,0.91c0.436,0.603,0.658,1.432,0.658,2.53       c0,1.572-0.308,3.23-0.923,4.948c-0.615,1.705-1.539,2.577-2.769,2.577c-0.778,0-1.393-0.278-1.837-0.872       c-0.462-0.581-0.667-1.41-0.667-2.513C199.571,163.142,199.862,161.497,200.469,159.749z M189.511,169.975       c1.975,0,3.538-0.915,4.667-2.761c1.111-1.825,1.658-3.786,1.658-5.889c0-1.675-0.393-3.111-1.205-4.316       c-0.795-1.213-2-1.842-3.641-1.842c-1.419,0-2.615,0.526-3.615,1.602c-0.992,1.06-1.667,2.265-2.026,3.602       c-0.351,1.325-0.538,2.432-0.538,3.351c0,2.102,0.444,3.671,1.368,4.709C187.092,169.45,188.204,169.975,189.511,169.975z        M188.11,159.749c0.589-1.761,1.547-2.654,2.854-2.654c0.778,0,1.376,0.308,1.786,0.91c0.436,0.603,0.65,1.432,0.65,2.53       c0,1.572-0.291,3.23-0.915,4.948c-0.616,1.705-1.53,2.577-2.761,2.577c-0.786,0-1.393-0.278-1.855-0.872       c-0.436-0.581-0.658-1.41-0.658-2.513C187.212,163.142,187.512,161.497,188.11,159.749z M177.153,169.975       c1.983,0,3.547-0.915,4.658-2.761c1.111-1.825,1.667-3.786,1.667-5.889c0-1.675-0.393-3.111-1.205-4.316       c-0.786-1.213-2.009-1.842-3.65-1.842c-1.402,0-2.607,0.526-3.598,1.602c-1,1.06-1.675,2.265-2.034,3.602       c-0.351,1.325-0.539,2.432-0.539,3.351c0,2.102,0.445,3.671,1.359,4.709C174.734,169.45,175.853,169.975,177.153,169.975z        M175.751,159.749c0.598-1.761,1.547-2.654,2.863-2.654c0.769,0,1.368,0.308,1.787,0.91c0.436,0.603,0.649,1.432,0.649,2.53       c0,1.572-0.308,3.23-0.915,4.948c-0.624,1.705-1.539,2.577-2.769,2.577c-0.786,0-1.393-0.278-1.855-0.872       c-0.445-0.581-0.658-1.41-0.658-2.513C174.853,163.142,175.144,161.497,175.751,159.749z" style="fill:#7E848B;"/></g></g></g></g></g><g id="Layer_1"/></svg>