<?xml version="1.0" standalone="no"?><!-- Generator: Gravit.io --><svg xmlns="http://www.w3.org/2000/svg" xmlns:xlink="http://www.w3.org/1999/xlink" style="isolation:isolate" viewBox="0 0 85.333 85.333" width="85.333" height="85.333"><defs><clipPath id="_clipPath_uto1Z8E5EHIin5efJTCG73g6HSICR5TW"><rect width="85.333" height="85.333"/></clipPath></defs><g clip-path="url(#_clipPath_uto1Z8E5EHIin5efJTCG73g6HSICR5TW)"><path d=" M 30 9.067 C 16.933 13.333 6.667 28.133 6.667 42.667 C 6.667 74.667 45.867 90.533 68.267 67.6 C 82.133 53.6 82.133 31.333 68.267 17.467 C 58.133 7.333 44.267 4.267 30 9.067 Z  M 57.333 15.067 C 65.067 19.067 71.333 27.467 73.333 36.4 C 78.133 57.733 57.867 78.267 36.8 73.467 C 28.133 71.467 22 67.467 17.333 61.067 C 8.133 48.4 9.467 31.733 20.667 20.667 C 30.667 10.533 44.4 8.4 57.333 15.067 Z " fill="rgb(209,209,209)"/><path d=" M 36 32.533 C 36 33.467 38.4 36 41.333 38 C 44.267 40 46.667 42.133 46.667 42.667 C 46.667 43.2 44.267 45.333 41.333 47.333 C 36.4 50.8 34.267 54.667 37.333 54.667 C 38.933 54.667 52.4 44.267 53.067 42.667 C 53.467 41.467 39.333 30.667 37.333 30.667 C 36.667 30.667 36 31.467 36 32.533 Z " fill="rgb(209,209,209)"/></g></svg>