<?xml version="1.0" encoding="utf-8"?>
<!-- Generator: Adobe Illustrator 19.0.0, SVG Export Plug-In . SVG Version: 6.00 Build 0)  -->
<svg version="1.1" id="Layer_1" xmlns="http://www.w3.org/2000/svg" xmlns:xlink="http://www.w3.org/1999/xlink" x="0px" y="0px"
	 viewBox="0 0 612 792" style="enable-background:new 0 0 612 792;" xml:space="preserve">
<style type="text/css">
	.st0{fill:#364A5E;}
	.st1{fill:#2D3F50;}
</style>
<g transform="translate(0 -1028.4)">
	<path id="XMLID_2_" class="st0" d="M306.3,1174.4c-8.5,0-17,1.5-24.5,3.5c-4.5,1-9,2.5-13.5,4.5c-1.5,0.5-3.5,1-5,2
		c-0.5,0.5-1,1-2,1.5c-4,2-8.5,4.5-12.5,7c-0.5,0.5-1.5,0.5-2,0.5c-1,1-2,2-3.5,2.5c-3.5,2.5-6.5,4.5-10,7c-3,2.5-5,5.5-8,8.5
		c-9,9-16.5,18.5-23,30c-10.5,19-18.5,40-22,62c-1.5-0.5-3-0.5-4.5,0c-11,3.5-13.5,24.5-6.5,46c4,13,11,23,18,28.5
		c9.5,37,29.5,68,55.9,87v21.5l-21,21l-41.4,21c-33.4,16.5-66.9,33.5-100.8,50c-18.5,11-26,33.5-24,54c1,13-4,29.5,9,38.5
		c12.5,6.5,27,2,40.4,3c38.9,0,77.9,0,116.8,0c55.4,0,110.8,0,166.2,0c49.4,0,98.3,0,147.3,0c16-1,20.5-18,19-31
		c0.5-19.5,1.5-41-13.5-56c-12.5-12.5-30-17.5-44.9-26c-22-11-44.4-21.5-66.4-32.5l-41.4-21l-21-21v-21.5c26.5-19.5,46.4-50,55.9-87
		c7-5.5,14-16,18-28.5c7-22,4.5-42.5-6.5-46c-1.5-0.5-3-0.5-4.5,0c-3.5-22-11.5-43-22-62c-6-11.5-14-21-23-30c-2.5-3-5-6-8-8.5h-0.5
		c-8-7.5-17-13-26.5-17.5c-2.5-1-4.5-2.5-7-3.5c-1.5-0.5-3.5-1.5-5-2c-5.5-2-10.5-3.5-16.5-4.5c-0.5,0-1,0-1.5,0
		C316.8,1174.9,311.8,1174.4,306.3,1174.4z"/>
	<path id="XMLID_1_" class="st1" d="M57.2,1653.3c0.5,6,2.5,12.5,9,16.5c12.5,6,27,2,40.4,4h116.8h166.2h147.3c12-2,17.5-10.5,19-21
		H57.2V1653.3z"/>
</g>
</svg>
