<?xml version="1.0" encoding="utf-8"?>
<!-- Generator: Adobe Illustrator 19.0.0, SVG Export Plug-In . SVG Version: 6.00 Build 0)  -->
<svg version="1.1" id="Layer_1" xmlns="http://www.w3.org/2000/svg" xmlns:xlink="http://www.w3.org/1999/xlink" x="0px" y="0px"
	 viewBox="0 0 110 110" style="enable-background:new 0 0 110 110;" xml:space="preserve">
<style type="text/css">
	.st0{fill:#E57E25;}
	.st1{fill:#F0C419;}
	.st2{fill:#F29D1F;}
	.st3{fill:#EDF0F1;}
</style>
<g transform="translate(0 -1028.4)">
	<rect id="XMLID_11_" x="33.1" y="1058.4" class="st0" width="43.8" height="35"/>
	<path id="XMLID_10_" class="st1" d="M30,1065.9v40h50v-40H30z"/>
	<path id="XMLID_9_" class="st2" d="M36.3,1060.9l-6.3,5h6.3V1060.9z"/>
	<path id="XMLID_8_" class="st1" d="M33.1,1058.4v5l3.1-2.5L33.1,1058.4z"/>
	<path id="XMLID_7_" class="st2" d="M73.8,1060.9l6.3,5h-6.3V1060.9z"/>
	<path id="XMLID_6_" class="st1" d="M76.9,1058.4v5l-3.1-2.5L76.9,1058.4z"/>
	<path id="XMLID_5_" class="st2" d="M55,1095.9c8.6,0,15.6-5.8,15.6-12.5v-7.5h-3.1v7.5c0,5.5-5.6,10-12.5,10
		c-6.9,0-12.5-4.5-12.5-10v-7.5h-3.1v7.5C39.4,1090.1,46.4,1095.9,55,1095.9z"/>
	<path id="XMLID_4_" class="st3" d="M55,1093.4c-8.6,0-15.6-5.8-15.6-12.5v-7.5h3.1v7.5c0,5.5,5.6,10,12.5,10
		c6.9,0,12.5-4.5,12.5-10v-7.5h3.1v7.5C70.6,1087.6,63.6,1093.4,55,1093.4z"/>
	<path class="st2" d="M70.6,1070.9v2.5h-3.1v-2.5H70.6z M42.5,1070.9v2.5h-3.1v-2.5H42.5z"/>
	<path id="XMLID_1_" class="st2" d="M30,1105.9l3.1,2.5h6.3h31.3h6.3l3.1-2.5H30z"/>
</g>
</svg>
