<?xml version="1.0" encoding="utf-8"?>
<!-- Generator: Adobe Illustrator 19.0.0, SVG Export Plug-In . SVG Version: 6.00 Build 0)  -->
<svg version="1.1"
	 id="svg6336" xmlns:cc="http://creativecommons.org/ns#" xmlns:svg="http://www.w3.org/2000/svg" xmlns:rdf="http://www.w3.org/1999/02/22-rdf-syntax-ns#" xmlns:dc="http://purl.org/dc/elements/1.1/"
	 xmlns="http://www.w3.org/2000/svg" xmlns:xlink="http://www.w3.org/1999/xlink" x="0px" y="0px" viewBox="142.6 266.3 310 310"
	 style="enable-background:new 142.6 266.3 310 310;" xml:space="preserve">
<style type="text/css">
	.st0{fill:#00247D;}
	.st1{fill:#CF142B;}
	.st2{fill:#FFFFFF;}
</style>
<g>
	<path id="rect6883" class="st0" d="M164.7,271.3c-9.5,0-17.1,7.6-17.1,17.1v265.9c0,9.5,7.6,17.1,17.1,17.1h133.8h132
		c9.5,0,17.1-7.6,17.1-17.1V288.3c0-9.5-7.6-17.1-17.1-17.1h-132H164.7z"/>
	<path id="path4589" class="st1" d="M147.6,321.6v26.1L275,421.3l-127.4,73.5v26.1l150-86.6l150,86.6v-26.1l-127.4-73.5l127.4-73.5
		v-26.1l-150,86.6L147.6,321.6z"/>
	<path id="path4587" class="st1" d="M271.8,271.3v124.2H147.6V447h124.2v124.2h26.7h24.9V447h124.2v-51.6H323.4V271.3h-24.9H271.8z"
		/>
	<path id="rect4572" class="st2" d="M266.8,271.3v113.4l-119.2-68.8v11.6l109.2,63.1h-25.2l-84-48.5v11.6l64,36.9h-64v10H229h20.1
		h10.4c6.8,0,11-0.3,17.4-0.3v-9.8V271.3H266.8z M318.4,271.3v119.2v10.1c6.1,0,11.8,0,17.4,0h10.4h20.1h81.4v-10h-64l64-36.9v-11.6
		l-84,48.5h-25.2l109.2-63.1v-11.6l-119.2,68.8V271.3H318.4z M276.9,442.2c-5.8,0-11.8-0.1-17.4-0.1h-10.4H229h-81.4v10h64l-64,36.9
		v11.6l84-48.5h25.2l-109.2,63.1v11.6l119.2-68.8v113.4h10V452.1V442.2z M318.4,442.2v9.9v119.2h10V457.9l119.2,68.8v-11.6
		l-109.2-63.1h25.2l84,48.5V489l-64-36.9h64v-10h-81.4h-20.1h-10.4C329.4,442,318.4,442.2,318.4,442.2z"/>
</g>
</svg>
