<?xml version="1.0" encoding="utf-8"?>
<!-- Generator: Adobe Illustrator 19.0.0, SVG Export Plug-In . SVG Version: 6.00 Build 0)  -->
<svg version="1.1" id="Layer_1" xmlns="http://www.w3.org/2000/svg" xmlns:xlink="http://www.w3.org/1999/xlink" x="0px" y="0px"
	 viewBox="0 0 612 792" style="enable-background:new 0 0 612 792;" xml:space="preserve">
<style type="text/css">
	.st0{fill:#2D3F50;}
	.st1{fill:#D25727;}
	.st2{fill:#95A5A6;}
	.st3{fill:#BDC3C7;}
	.st4{fill:#EDF0F1;}
	.st5{fill:#364A5E;}
</style>
<g id="XMLID_2_">
	<path id="XMLID_9_" class="st0" d="M285.2,366h41.6l4.2,40H281L285.2,366z"/>
	<path id="XMLID_8_" class="st1" d="M289.3,410c-9.5,4.4-19,8.8-28.5,13.6c-3.7,2-5.1,6.4-4.8,10.4c0.2,2.4-0.8,5.6,1.8,7.2
		c2.5,1.2,5.3,0.4,8,0.8h86.3c3.2-0.4,4-3.6,3.7-6.4c0.1-3.6,0.3-7.6-2.7-10.4c-2.5-2.4-6-3.6-9-5.2c-7.2-3.2-14.4-6.8-21.6-10
		H289.3z"/>
	<rect id="XMLID_7_" x="293.5" y="398" class="st2" width="25" height="20"/>
	<path id="XMLID_6_" class="st3" d="M306,346c-12.3,0-22.5,10.4-24.6,24.8c-0.5-0.4-1-0.4-1.4-0.4c-2.2,0.8-2.7,4.8-1.3,9.2
		c0.8,2.4,2.2,4.4,3.6,5.2c3.2,12.4,12.5,21.2,23.7,21.2c11.1,0,20.4-8.8,23.7-21.2c1.4-0.8,2.8-2.8,3.6-5.2
		c1.4-4.4,0.9-8.4-1.3-9.2c-0.4,0-1,0-1.4,0.4C328.5,356.4,318.3,346,306,346L306,346z"/>
	<path id="XMLID_5_" class="st4" d="M289.3,410c0,8.4,7.5,36,16.6,36s16.6-27.6,16.6-36H289.3z"/>
	<path id="XMLID_4_" class="st5" d="M306,346c-12.6,0-22.9,10.8-24.7,25.6c13.2-4.4,23.4-13.6,27.2-25.6C308.5,346,306,346,306,346z
		"/>
	<path id="XMLID_3_" class="st0" d="M306.3,346c12.6,0,22.9,10.8,24.7,25.6c-13.2-4.4-23.4-13.6-27.2-25.6H306.3z"/>
	<path id="XMLID_1_" class="st2" d="M289.3,410c0,5.6,7.5,24,16.6,24s16.6-18.4,16.6-24H289.3z"/>
</g>
</svg>
